<svg width="130" height="130" viewBox="0 0 130 130" fill="none" xmlns="http://www.w3.org/2000/svg">
<path d="M8.968 111.312C8.11467 111.312 7.688 110.971 7.688 110.288C7.688 109.349 8.37067 108.709 9.736 108.368C14.0027 107.173 18.2693 105.211 22.536 102.48C26.8027 99.8347 30.856 96.8053 34.696 93.392C38.536 89.9787 41.9067 86.608 44.808 83.28C45.4907 82.4267 46.4293 81.3173 47.624 79.952C48.8187 78.5013 50.2267 76.752 51.848 74.704C49.7147 75.5573 47.6667 76.368 45.704 77.136C43.8267 77.904 42.0773 78.672 40.456 79.44C40.3707 79.5253 40.1573 79.568 39.816 79.568C39.048 79.568 38.664 79.0987 38.664 78.16C38.664 77.2213 38.92 76.24 39.432 75.216C40.0293 74.1067 40.712 73.3387 41.48 72.912C43.9547 71.888 46.472 70.9493 49.032 70.096C51.6773 69.1573 54.3653 68.3467 57.096 67.664C60.936 62.3733 64.2213 57.0827 66.952 51.792C69.6827 46.416 72.1147 40.3147 74.248 33.488C74.8453 31.44 75.144 29.8187 75.144 28.624C75.144 25.296 73.1813 23.376 69.256 22.864C67.72 22.6933 65.672 22.9067 63.112 23.504C60.552 24.1013 57.736 24.9973 54.664 26.192C51.592 27.3013 48.5627 28.5387 45.576 29.904C42.6747 31.2693 40.1147 32.6773 37.896 34.128C32.8613 37.2853 28.0827 41.04 23.56 45.392C19.1227 49.6587 15.6667 53.7547 13.192 57.68C10.9733 61.3493 9.864 64.2507 9.864 66.384C9.864 69.712 12.1253 71.376 16.648 71.376C21.512 71.376 26.248 70.608 30.856 69.072C35.5493 67.536 39.56 65.7867 42.888 63.824C44.0827 63.1413 45.1067 62.8 45.96 62.8C46.5573 62.8 46.856 62.928 46.856 63.184C46.7707 63.44 46.3867 63.7813 45.704 64.208C40.9253 67.1093 36.104 69.584 31.24 71.632C26.376 73.5947 21.4267 74.576 16.392 74.576C12.552 74.576 9.69333 73.8933 7.816 72.528C5.93867 71.0773 5 69.1147 5 66.64C5 63.9093 5.896 60.9653 7.688 57.808C9.39467 54.6507 11.656 51.408 14.472 48.08C17.3733 44.752 20.6587 41.5093 24.328 38.352C27.9973 35.1947 31.88 32.4213 35.976 30.032C41.864 26.448 47.624 23.5467 53.256 21.328C58.9733 19.1093 64.6907 18 70.408 18C73.48 18 75.784 18.8107 77.32 20.432C78.856 21.968 79.624 24.144 79.624 26.96C79.624 28.9227 79.24 31.1413 78.472 33.616C76.936 38.736 75.4427 43.1733 73.992 46.928C72.6267 50.5973 71.1333 53.968 69.512 57.04C67.976 60.0267 66.0987 63.1413 63.88 66.384C66.44 65.7013 68.7867 65.1893 70.92 64.848C73.1387 64.5067 75.4853 64.208 77.96 63.952C80.4347 63.6107 83.3787 63.2693 86.792 62.928C87.4747 62.8427 88.4133 62.7573 89.608 62.672C90.8027 62.5867 92.2107 62.4587 93.832 62.288C98.6107 53.7547 102.963 46.544 106.888 40.656C110.899 34.768 114.397 30.2027 117.384 26.96C117.896 26.448 118.664 26.192 119.688 26.192C120.968 26.192 122.163 26.5333 123.272 27.216C124.381 27.8133 124.936 28.5387 124.936 29.392C124.936 29.7333 124.765 30.0747 124.424 30.416C120.584 33.744 116.275 38.224 111.496 43.856C106.803 49.488 102.323 55.5893 98.056 62.16H101.256C101.597 62.16 101.853 62.2027 102.024 62.288C102.28 62.288 102.493 62.3307 102.664 62.416C102.92 62.5013 103.048 62.672 103.048 62.928C103.048 63.5253 102.493 63.8667 101.384 63.952C100.275 64.0373 98.7387 64.1653 96.776 64.336C94.3013 68.2613 92.1253 72.272 90.248 76.368C88.3707 80.3787 86.7493 84.3893 85.384 88.4C84.7013 90.704 84.36 92.496 84.36 93.776C84.36 96.848 85.768 98.64 88.584 99.152C89.4373 99.2373 89.864 99.7493 89.864 100.688C89.864 101.627 89.5227 102.48 88.84 103.248C88.1573 104.016 87.3893 104.315 86.536 104.144C82.5253 103.461 80.52 100.987 80.52 96.72C80.52 94.416 81.032 91.728 82.056 88.656C83.1653 85.1573 84.5733 81.4453 86.28 77.52C88.072 73.5093 90.1627 69.2853 92.552 64.848C87.0053 65.5307 81.672 66.5547 76.552 67.92C71.432 69.2 65.5867 70.9493 59.016 73.168C58.1627 74.2773 57.1813 75.4293 56.072 76.624C55.048 77.7333 53.8533 78.9707 52.488 80.336C49.5867 83.4933 48.0933 85.1147 48.008 85.2C45.1067 88.4427 41.5653 91.8133 37.384 95.312C33.288 98.8107 28.8507 101.968 24.072 104.784C19.3787 107.685 14.6427 109.819 9.864 111.184C9.69333 111.269 9.39467 111.312 8.968 111.312Z" fill="#15B7B9"/>
</svg>
