<svg width="250" height="250" viewBox="0 0 250 250" fill="none" xmlns="http://www.w3.org/2000/svg">
<circle cx="125" cy="125" r="125" fill="#00ffffffff"/>
<path d="M68.968 150.312C68.1147 150.312 67.688 149.971 67.688 149.288C67.688 148.349 68.3707 147.709 69.736 147.368C74.0027 146.173 78.2693 144.211 82.536 141.48C86.8027 138.835 90.856 135.805 94.696 132.392C98.536 128.979 101.907 125.608 104.808 122.28C105.491 121.427 106.429 120.317 107.624 118.952C108.819 117.501 110.227 115.752 111.848 113.704C109.715 114.557 107.667 115.368 105.704 116.136C103.827 116.904 102.077 117.672 100.456 118.44C100.371 118.525 100.157 118.568 99.816 118.568C99.048 118.568 98.664 118.099 98.664 117.16C98.664 116.221 98.92 115.24 99.432 114.216C100.029 113.107 100.712 112.339 101.48 111.912C103.955 110.888 106.472 109.949 109.032 109.096C111.677 108.157 114.365 107.347 117.096 106.664C120.936 101.373 124.221 96.0827 126.952 90.792C129.683 85.416 132.115 79.3147 134.248 72.488C134.845 70.44 135.144 68.8187 135.144 67.624C135.144 64.296 133.181 62.376 129.256 61.864C127.72 61.6933 125.672 61.9067 123.112 62.504C120.552 63.1013 117.736 63.9973 114.664 65.192C111.592 66.3013 108.563 67.5387 105.576 68.904C102.675 70.2693 100.115 71.6773 97.896 73.128C92.8613 76.2853 88.0827 80.04 83.56 84.392C79.1227 88.6587 75.6667 92.7547 73.192 96.68C70.9733 100.349 69.864 103.251 69.864 105.384C69.864 108.712 72.1253 110.376 76.648 110.376C81.512 110.376 86.248 109.608 90.856 108.072C95.5493 106.536 99.56 104.787 102.888 102.824C104.083 102.141 105.107 101.8 105.96 101.8C106.557 101.8 106.856 101.928 106.856 102.184C106.771 102.44 106.387 102.781 105.704 103.208C100.925 106.109 96.104 108.584 91.24 110.632C86.376 112.595 81.4267 113.576 76.392 113.576C72.552 113.576 69.6933 112.893 67.816 111.528C65.9387 110.077 65 108.115 65 105.64C65 102.909 65.896 99.9653 67.688 96.808C69.3947 93.6507 71.656 90.408 74.472 87.08C77.3733 83.752 80.6587 80.5093 84.328 77.352C87.9973 74.1947 91.88 71.4213 95.976 69.032C101.864 65.448 107.624 62.5467 113.256 60.328C118.973 58.1093 124.691 57 130.408 57C133.48 57 135.784 57.8107 137.32 59.432C138.856 60.968 139.624 63.144 139.624 65.96C139.624 67.9227 139.24 70.1413 138.472 72.616C136.936 77.736 135.443 82.1733 133.992 85.928C132.627 89.5973 131.133 92.968 129.512 96.04C127.976 99.0267 126.099 102.141 123.88 105.384C126.44 104.701 128.787 104.189 130.92 103.848C133.139 103.507 135.485 103.208 137.96 102.952C140.435 102.611 143.379 102.269 146.792 101.928C147.475 101.843 148.413 101.757 149.608 101.672C150.803 101.587 152.211 101.459 153.832 101.288C158.611 92.7547 162.963 85.544 166.888 79.656C170.899 73.768 174.397 69.2027 177.384 65.96C177.896 65.448 178.664 65.192 179.688 65.192C180.968 65.192 182.163 65.5333 183.272 66.216C184.381 66.8133 184.936 67.5387 184.936 68.392C184.936 68.7333 184.765 69.0747 184.424 69.416C180.584 72.744 176.275 77.224 171.496 82.856C166.803 88.488 162.323 94.5893 158.056 101.16H161.256C161.597 101.16 161.853 101.203 162.024 101.288C162.28 101.288 162.493 101.331 162.664 101.416C162.92 101.501 163.048 101.672 163.048 101.928C163.048 102.525 162.493 102.867 161.384 102.952C160.275 103.037 158.739 103.165 156.776 103.336C154.301 107.261 152.125 111.272 150.248 115.368C148.371 119.379 146.749 123.389 145.384 127.4C144.701 129.704 144.36 131.496 144.36 132.776C144.36 135.848 145.768 137.64 148.584 138.152C149.437 138.237 149.864 138.749 149.864 139.688C149.864 140.627 149.523 141.48 148.84 142.248C148.157 143.016 147.389 143.315 146.536 143.144C142.525 142.461 140.52 139.987 140.52 135.72C140.52 133.416 141.032 130.728 142.056 127.656C143.165 124.157 144.573 120.445 146.28 116.52C148.072 112.509 150.163 108.285 152.552 103.848C147.005 104.531 141.672 105.555 136.552 106.92C131.432 108.2 125.587 109.949 119.016 112.168C118.163 113.277 117.181 114.429 116.072 115.624C115.048 116.733 113.853 117.971 112.488 119.336C109.587 122.493 108.093 124.115 108.008 124.2C105.107 127.443 101.565 130.813 97.384 134.312C93.288 137.811 88.8507 140.968 84.072 143.784C79.3787 146.685 74.6427 148.819 69.864 150.184C69.6933 150.269 69.3947 150.312 68.968 150.312Z" fill="#15B7B9"/>
<path d="M89.92 193.8H88.064V182.664H75.04V193.8H73.184V170.952H75.04V181H88.064V170.952H89.92V193.8Z" fill="#15B7B9"/>
<path d="M113.813 193.8L110.773 185.928H101.269L98.197 193.8H96.309L105.301 170.888H106.965L115.733 193.8H113.813ZM107.125 176.008C107.061 175.795 106.965 175.507 106.837 175.144C106.709 174.781 106.581 174.397 106.453 173.992C106.325 173.587 106.197 173.224 106.069 172.904C105.962 173.267 105.845 173.64 105.717 174.024C105.61 174.408 105.493 174.771 105.365 175.112C105.258 175.453 105.152 175.763 105.045 176.04L101.909 184.264H110.197L107.125 176.008Z" fill="#15B7B9"/>
<path d="M122.178 193.8V170.952H124.034V192.136H134.722V193.8H122.178Z" fill="#15B7B9"/>
<path d="M146.967 193.8H140.279V192.648L142.711 192.296V172.488L140.279 172.104V170.952H146.967V172.104L144.535 172.488V192.296L146.967 192.648V193.8Z" fill="#15B7B9"/>
<path d="M164.904 193.8L156.68 172.904H156.584C156.627 173.288 156.648 173.725 156.648 174.216C156.669 174.685 156.68 175.187 156.68 175.72C156.701 176.232 156.712 176.765 156.712 177.32V193.8H154.984V170.952H157.768L165.64 190.984H165.768L173.736 170.952H176.456V193.8H174.632V177.128C174.632 176.659 174.632 176.179 174.632 175.688C174.653 175.197 174.675 174.717 174.696 174.248C174.717 173.779 174.739 173.341 174.76 172.936H174.664L166.408 193.8H164.904Z" fill="#15B7B9"/>
</svg>
